# xmcd
#
# Track frame offsets: 
#        150
#        19184
#        34305
#        55758
#        73523
#        89358
#        103590
#        120131
#        136545
#        150580
#        167105
#        184828
#        199616
#        214366
#        236138
#
# Disc length: 3381 seconds
#
# Revision: 5
# Processed by: cddbd v1.5.2PL0 Copyright (c) Steve Scherf et al.
# Submitted via: ExactAudioCopy v0.99pb5
#
DISCID=c60d330f
DTITLE=Various Artist - Classic Country - TL 626-38 - New Frontiers - CD 1
DYEAR=2003
DGENRE=Country
TTITLE0=Toby Keith - How do you like me now?!
TTITLE1=Brad Paisley - Me neither
TTITLE2=Alabama - Dancin', shaggin' on the boulevard
TTITLE3=Mark Chesnutt - I don't want to miss a thing
TTITLE4=Reba McEntire - What do you say
TTITLE5=Bryan White - Sittin' on go
TTITLE6=Vince Gill - Pretty little Adrianna
TTITLE7=Jo Dee Messina - Lesson in leavin'
TTITLE8=Alan Jackson - Pop a top
TTITLE9=Ty Herndon - A man holding on (to a woman letting go)
TTITLE10=Phil Vassar - Just another day in paradise
TTITLE11=Martina McBride - Wrong again
TTITLE12=Brooks and Dunn - Honky tonk truth
TTITLE13=Steve Wariner - Holes in the floor of heaven
TTITLE14=LeAnn Rimes - Unchained melody
EXTD=
EXTT0=
EXTT1=
EXTT2=
EXTT3=
EXTT4=
EXTT5=
EXTT6=
EXTT7=
EXTT8=
EXTT9=
EXTT10=
EXTT11=
EXTT12=
EXTT13=
EXTT14=
PLAYORDER=
